<svg width="55" height="53" viewBox="0 0 55 53" fill="none" xmlns="http://www.w3.org/2000/svg">
<path d="M3.16452 10.1278C6.43023 5.22835 10.8672 2.55201 16.4753 2.09882C22.0835 1.64563 27.3689 1.26895 32.3316 0.96879C37.2942 0.668627 42.0939 1.9314 46.7304 4.75711C51.367 7.58281 53.7534 11.6916 53.8896 17.0835C54.0257 22.4754 54.3021 27.9515 54.7186 33.5116C55.1352 39.0718 53.1964 43.7913 48.9022 47.6701C44.6081 51.5489 39.7263 52.8487 34.2569 51.5694C28.7874 50.2902 23.7534 49.0345 19.1548 47.8023C14.5563 46.5701 10.9466 43.9031 8.32585 39.8014C5.7051 35.6996 3.37326 30.9535 1.33034 25.5629C-0.71259 20.1723 -0.101196 15.0273 3.16452 10.1278Z" fill="#279DF2"/>
</svg>
