<svg width="57" height="49" viewBox="0 0 57 49" fill="none" xmlns="http://www.w3.org/2000/svg">
<path d="M55.9998 31.7048C54.1423 37.1879 50.6042 40.858 45.3855 42.7152C40.1669 44.5724 35.2357 46.2748 30.5919 47.8224C25.9482 49.3701 21.0612 49.3922 15.931 47.8888C10.8007 46.3853 7.48377 43.091 5.98009 38.0059C4.4764 32.9208 2.81792 27.7914 1.00465 22.6178C-0.808621 17.4442 -0.167342 12.4697 2.92849 7.69404C6.02431 2.91843 10.3364 0.442186 15.8646 0.265312C21.3929 0.0884372 26.501 0 31.189 0C35.8769 0 39.99 1.61398 43.5281 4.84194C47.0661 8.0699 50.4937 11.9832 53.8106 16.582C57.1276 21.1807 57.8573 26.2216 55.9998 31.7048Z" fill="#279DF2"/>
</svg>
