<svg width="14" height="14" viewBox="0 0 14 14" fill="none" xmlns="http://www.w3.org/2000/svg">
<path d="M0.863839 12.8638C1.12191 13.1219 1.47192 13.2669 1.83688 13.2669C2.20184 13.2669 2.55186 13.1219 2.80992 12.8638L10.5164 5.15735L10.5164 10.2691C10.529 10.6254 10.6794 10.9629 10.9359 11.2106C11.1925 11.4582 11.5351 11.5966 11.8917 11.5966C12.2482 11.5966 12.5909 11.4582 12.8474 11.2106C13.1039 10.9629 13.2543 10.6254 13.2669 10.2691L13.2669 1.83603C13.2667 1.47136 13.1217 1.1217 12.8638 0.863842C12.606 0.605985 12.2563 0.461022 11.8917 0.460795L3.45862 0.460795C3.27394 0.454276 3.08983 0.485022 2.91729 0.551198C2.74475 0.617375 2.58731 0.717626 2.45435 0.845972C2.32139 0.974317 2.21565 1.12813 2.14343 1.29823C2.07121 1.46833 2.03398 1.65123 2.03398 1.83603C2.03398 2.02083 2.07121 2.20373 2.14343 2.37383C2.21565 2.54393 2.32139 2.69774 2.45435 2.82609C2.58731 2.95443 2.74475 3.05468 2.91729 3.12086C3.08983 3.18704 3.27394 3.21778 3.45862 3.21126L8.57034 3.21126L0.863839 10.9178C0.326719 11.4549 0.326719 12.3267 0.863839 12.8638Z" fill="#279DF2"/>
</svg>
